# xmcd CD database file
#
# Track frame offsets:
#	150
#	13235
#	25107
#	37505
#	48787
#	59305
#	76257
#	90675
#	111990
#	126427
#	137507
#	150387
#	161725
#	170685
#	181390
#	192927
#	203395
#	215792
#	226870
#	236797
#	246947
#	260937
#	274662
#	287600
#
# Disc length: 3998 seconds
#
# Revision: 5
# Processed by: cddbd v1.5.2PL0 Copyright (c) Steve Scherf et al.
# Submitted via: CDex 1.51
#
DISCID=4d0f9c18
DTITLE=Johnny Winter - Winter Blues
DYEAR=1997
DGENRE=Blues Rock
TTITLE0=Leavin' Blues
TTITLE1=Avocado Blues
TTITLE2=Parchman Farm
TTITLE3=Gangster Of Love
TTITLE4=38-32-20
TTITLE5=Kind Hearted Woman
TTITLE6=Low Down Gal Of Mine
TTITLE7=Goin' Down Slow
TTITLE8=Ease My Pain
TTITLE9=Out Of Sight
TTITLE10=Bad News
TTITLE11=I Can't Believe You Want To Leave
TTITLE12=I Had To Cry
TTITLE13=That's What Love Does
TTITLE14=The Guy You Left Behind
TTITLE15=Shed So Many Tears
TTITLE16=Leave My Woman Alone
TTITLE17=Broke and Lonely
TTITLE18=Creepy No. 2
TTITLE19=By The Light Of The Silvery Moon
TTITLE20=5 After 4AM
TTITLE21=Spiders In My Mind (Birds Can't Row Boats)
TTITLE22=Easy Lovin' Girl
TTITLE23=Livin' In The Blues
EXTD=YEAR: 1997
EXTT0=
EXTT1=
EXTT2=
EXTT3=
EXTT4=
EXTT5=
EXTT6=
EXTT7=
EXTT8=
EXTT9=
EXTT10=
EXTT11=
EXTT12=
EXTT13=
EXTT14=
EXTT15=
EXTT16=
EXTT17=
EXTT18=
EXTT19=
EXTT20=
EXTT21=
EXTT22=
EXTT23=
PLAYORDER=
